<svg width="378" height="124" viewBox="0 0 378 124" fill="none" xmlns="http://www.w3.org/2000/svg">
<path d="M30.848 10.064C26.752 10.064 24.704 11.728 24.704 15.056V20.432V97.104H29.312C34.8587 97.104 38.8693 96.848 41.344 96.336C43.4773 95.7387 45.3547 94.8427 46.976 93.648C48.5973 92.368 50.048 90.6187 51.328 88.4C52.608 86.1813 53.888 83.28 55.168 79.696H56.192L49.792 98H3.328V97.36C5.03467 97.36 6.44267 96.9333 7.552 96.08C8.74667 95.1413 9.344 93.8187 9.344 92.112V15.056C9.344 11.728 7.33867 10.064 3.328 10.064V9.03999H30.848V10.064ZM64.975 76.624C60.879 69.5413 58.831 61.8613 58.831 53.584C58.831 45.2213 60.879 37.4987 64.975 30.416C69.071 23.3333 74.6603 17.744 81.743 13.648C88.8257 9.552 96.5483 7.504 104.911 7.504C111.14 7.504 117.071 8.74133 122.703 11.216C128.42 13.6053 133.327 16.848 137.423 20.944C141.604 25.04 144.89 29.9467 147.279 35.664C149.754 41.3813 150.991 47.3547 150.991 53.584C150.991 61.8613 148.9 69.5413 144.719 76.624C140.623 83.7067 135.034 89.3387 127.951 93.52C120.954 97.616 113.274 99.664 104.911 99.664C96.5483 99.664 88.8257 97.616 81.743 93.52C74.6603 89.3387 69.071 83.7067 64.975 76.624ZM78.415 30.928C75.6843 37.84 74.319 45.392 74.319 53.584C74.319 61.776 75.6843 69.328 78.415 76.24C81.1457 83.152 84.8577 88.6133 89.551 92.624C94.2443 96.6347 99.3643 98.64 104.911 98.64C110.458 98.64 115.578 96.6347 120.271 92.624C124.964 88.6133 128.676 83.152 131.407 76.24C134.138 69.328 135.503 61.776 135.503 53.584C135.503 47.44 134.692 41.5947 133.071 36.048C131.45 30.416 129.274 25.5947 126.543 21.584C123.812 17.5733 120.57 14.3733 116.815 11.984C113.06 9.59466 109.092 8.39999 104.911 8.39999C99.3643 8.39999 94.2443 10.448 89.551 14.544C84.8577 18.5547 81.1457 24.016 78.415 30.928ZM185.348 10.064C181.252 10.064 179.204 11.728 179.204 15.056V20.432V97.104H183.812C189.359 97.104 193.369 96.848 195.844 96.336C197.977 95.7387 199.855 94.8427 201.476 93.648C203.097 92.368 204.548 90.6187 205.828 88.4C207.108 86.1813 208.388 83.28 209.668 79.696H210.692L204.292 98H157.828V97.36C159.535 97.36 160.943 96.9333 162.052 96.08C163.247 95.1413 163.844 93.8187 163.844 92.112V15.056C163.844 11.728 161.839 10.064 157.828 10.064V9.03999H185.348V10.064ZM251.57 9.03999L280.242 93.136C280.413 93.648 280.669 94.16 281.01 94.672C282.29 96.464 284.039 97.36 286.258 97.36H287.41V98H265.138L260.146 83.408L257.842 76.624L251.826 59.088H242.226C239.239 59.088 236.893 60.2827 235.186 62.672C233.479 65.0613 233.138 67.664 234.162 70.48L237.618 80.208C238.813 83.7067 239.154 86.864 238.642 89.68C238.215 92.24 237.106 94.3733 235.314 96.08C232.925 98.4693 229.81 99.664 225.97 99.664C222.215 99.664 219.143 98.4693 216.754 96.08C214.962 94.3733 213.853 92.24 213.426 89.68C212.914 86.864 213.255 83.7067 214.45 80.208L236.466 18.256C236.893 16.8907 236.893 15.568 236.466 14.288V14.032C236.21 13.4347 235.911 12.9227 235.57 12.496C234.375 10.704 232.669 9.808 230.45 9.808H229.298V9.03999H251.57ZM228.786 58.064H251.57L237.618 17.616L216.754 76.624C215.73 79.44 215.431 82 215.858 84.304C216.199 86.4373 217.053 88.1867 218.418 89.552C220.466 91.5147 222.983 92.496 225.97 92.496C229.042 92.496 231.602 91.5147 233.65 89.552C235.015 88.1867 235.869 86.48 236.21 84.432C236.637 82.128 236.338 79.5253 235.314 76.624L228.786 58.064ZM291.608 0.975998H306.456C304.493 3.96266 303.299 6.90666 302.872 9.808C302.445 12.624 302.573 15.184 303.256 17.488C304.024 19.7067 305.219 22.1387 306.84 24.784H304.92C304.579 24.4427 303.555 23.504 301.848 21.968C300.227 20.432 298.904 19.152 297.88 18.128C296.856 17.104 295.661 15.824 294.296 14.288C293.016 12.6667 292.035 11.1733 291.352 9.808C290.669 8.35733 290.328 6.992 290.328 5.712C290.328 4.00533 290.755 2.42666 291.608 0.975998ZM320.597 68.944L332.117 47.568C331.178 46.7147 330.24 45.904 329.301 45.136C325.802 42.1493 323.114 38.992 321.237 35.664C319.445 32.336 318.677 29.1787 318.933 26.192C319.274 21.4133 321.28 17.488 324.949 14.416C328.618 11.2587 332.928 9.25333 337.877 8.39999C342.826 7.54666 347.904 7.46133 353.109 8.144C358.314 8.74133 362.709 10.064 366.293 12.112V21.968C363.904 17.9573 360.874 14.7147 357.205 12.24C353.536 9.68 349.568 8.44266 345.301 8.52799C342.4 8.61333 339.797 9.38133 337.493 10.832C335.274 12.2827 333.653 14.0747 332.629 16.208C331.69 18.256 331.477 20.56 331.989 23.12C332.586 25.68 334.037 28.0267 336.341 30.16C337.109 30.928 340.608 34.0427 346.837 39.504C353.066 44.9653 358.229 49.7013 362.325 53.712C366.421 57.7227 369.28 61.0507 370.901 63.696C373.632 68.048 374.741 72.4853 374.229 77.008C373.546 83.152 370.218 88.4 364.245 92.752C358.272 97.104 351.53 99.408 344.021 99.664C337.962 99.8347 332.33 98.5973 327.125 95.952C321.92 93.2213 317.61 88.784 314.197 82.64C314.026 82.384 313.856 82.0853 313.685 81.744L314.709 79.824L317.397 74.96L320.597 68.944ZM326.613 59.6C321.237 69.584 321.152 78.2453 326.357 85.584C328.917 89.3387 331.861 92.3253 335.189 94.544C338.602 96.7627 342.058 97.872 345.557 97.872C348.629 97.872 351.445 97.36 354.005 96.336C356.565 95.312 358.57 93.8187 360.021 91.856C361.557 89.808 362.368 87.4613 362.453 84.816C362.538 82.0853 361.472 78.8427 359.253 75.088C357.034 71.3333 353.664 67.408 349.141 63.312C347.776 62.1173 345.258 59.8133 341.589 56.4C338.005 52.9013 335.061 50.1707 332.757 48.208L326.613 59.6Z" fill="black"/>
<path d="M290.193 118L284.949 104.816H284.9C284.913 105.057 284.923 105.311 284.93 105.578C284.943 105.839 284.952 106.112 284.959 106.398C284.965 106.685 284.969 106.984 284.969 107.297V118H284.012V103.723H285.535L290.594 116.438H290.652L295.75 103.723H297.234V118H296.248V107.18C296.248 106.926 296.251 106.665 296.258 106.398C296.264 106.132 296.271 105.868 296.277 105.607C296.29 105.34 296.303 105.083 296.316 104.836H296.258L290.994 118H290.193ZM313.289 110.842C313.289 111.929 313.156 112.922 312.889 113.82C312.622 114.719 312.221 115.493 311.688 116.145C311.154 116.796 310.486 117.3 309.686 117.658C308.891 118.016 307.964 118.195 306.902 118.195C305.835 118.195 304.9 118.016 304.1 117.658C303.299 117.3 302.632 116.796 302.098 116.145C301.57 115.487 301.173 114.709 300.906 113.811C300.639 112.906 300.506 111.91 300.506 110.822C300.506 109.377 300.75 108.104 301.238 107.004C301.733 105.904 302.459 105.044 303.416 104.426C304.38 103.807 305.568 103.498 306.98 103.498C308.335 103.498 309.48 103.794 310.418 104.387C311.362 104.973 312.075 105.816 312.557 106.916C313.045 108.01 313.289 109.318 313.289 110.842ZM301.561 110.832C301.561 112.108 301.753 113.234 302.137 114.211C302.521 115.181 303.11 115.939 303.904 116.486C304.699 117.033 305.701 117.307 306.912 117.307C308.136 117.307 309.142 117.036 309.93 116.496C310.717 115.956 311.3 115.201 311.678 114.23C312.055 113.26 312.244 112.131 312.244 110.842C312.244 108.804 311.798 107.222 310.906 106.096C310.021 104.969 308.712 104.406 306.98 104.406C305.763 104.406 304.751 104.676 303.943 105.217C303.143 105.757 302.544 106.509 302.146 107.473C301.756 108.436 301.561 109.556 301.561 110.832ZM326.961 118H325.936L317.498 105.373H317.449C317.462 105.725 317.472 106.083 317.479 106.447C317.492 106.805 317.501 107.176 317.508 107.561C317.521 107.938 317.527 108.329 317.527 108.732V118H316.57V103.723H317.605L326.014 116.311H326.062C326.056 116.024 326.046 115.692 326.033 115.314C326.027 114.937 326.017 114.549 326.004 114.152C325.997 113.755 325.994 113.381 325.994 113.029V103.723H326.961V118ZM334.734 118H333.719V104.631H329.09V103.723H339.363V104.631H334.734V118ZM349.295 118H341.492V103.723H349.295V104.631H342.498V110.041H348.914V110.949H342.498V117.092H349.295V118ZM356.014 103.723C357.146 103.723 358.09 103.846 358.846 104.094C359.607 104.341 360.18 104.748 360.564 105.314C360.949 105.881 361.141 106.646 361.141 107.609C361.141 108.332 361.007 108.954 360.74 109.475C360.48 109.989 360.118 110.412 359.656 110.744C359.194 111.076 358.66 111.33 358.055 111.506L361.971 118H360.779L357.098 111.789H353.553V118H352.547V103.723H356.014ZM355.916 104.611H353.553V110.9H356.395C357.56 110.9 358.468 110.62 359.119 110.061C359.777 109.501 360.105 108.697 360.105 107.648C360.105 106.496 359.76 105.702 359.07 105.266C358.38 104.829 357.329 104.611 355.916 104.611ZM376.453 110.842C376.453 111.929 376.32 112.922 376.053 113.82C375.786 114.719 375.385 115.493 374.852 116.145C374.318 116.796 373.65 117.3 372.85 117.658C372.055 118.016 371.128 118.195 370.066 118.195C368.999 118.195 368.064 118.016 367.264 117.658C366.463 117.3 365.796 116.796 365.262 116.145C364.734 115.487 364.337 114.709 364.07 113.811C363.803 112.906 363.67 111.91 363.67 110.822C363.67 109.377 363.914 108.104 364.402 107.004C364.897 105.904 365.623 105.044 366.58 104.426C367.544 103.807 368.732 103.498 370.145 103.498C371.499 103.498 372.645 103.794 373.582 104.387C374.526 104.973 375.239 105.816 375.721 106.916C376.209 108.01 376.453 109.318 376.453 110.842ZM364.725 110.832C364.725 112.108 364.917 113.234 365.301 114.211C365.685 115.181 366.274 115.939 367.068 116.486C367.863 117.033 368.865 117.307 370.076 117.307C371.3 117.307 372.306 117.036 373.094 116.496C373.882 115.956 374.464 115.201 374.842 114.23C375.219 113.26 375.408 112.131 375.408 110.842C375.408 108.804 374.962 107.222 374.07 106.096C373.185 104.969 371.876 104.406 370.145 104.406C368.927 104.406 367.915 104.676 367.107 105.217C366.307 105.757 365.708 106.509 365.311 107.473C364.92 108.436 364.725 109.556 364.725 110.832Z" fill="black"/>
</svg>
